<svg width="250" height="250" viewBox="0 0 250 250" fill="none" xmlns="http://www.w3.org/2000/svg">
<g clip-path="url(#clip0_81_5)">
<path d="M101.944 102.847C92.6567 102.847 83.5778 100.092 75.8563 94.9308C68.1348 89.7694 62.1179 82.4336 58.5668 73.8516C55.0157 65.2695 54.0901 55.827 55.9071 46.7188C57.7241 37.6106 62.2021 29.246 68.7743 22.6835C75.3466 16.121 83.7177 11.6554 92.8286 9.85191C101.94 8.0484 111.381 8.98797 119.957 12.5517C128.534 16.1155 135.861 22.1433 141.011 29.8724C146.161 37.6015 148.903 46.6845 148.889 55.9722C148.852 68.405 143.892 80.317 135.094 89.1018C126.297 97.8866 114.377 102.829 101.944 102.847ZM101.944 22.9167C95.4066 22.9167 89.0157 24.8553 83.5797 28.4875C78.1438 32.1197 73.907 37.2823 71.4051 43.3224C68.9032 49.3625 68.2486 56.0089 69.524 62.421C70.7995 68.8332 73.9477 74.7231 78.5706 79.346C83.1935 83.9689 89.0834 87.1172 95.4956 88.3926C101.908 89.6681 108.554 89.0135 114.594 86.5116C120.634 84.0097 125.797 79.7729 129.429 74.3369C133.061 68.9009 135 62.51 135 55.9722C135 47.2053 131.517 38.7975 125.318 32.5984C119.119 26.3993 110.711 22.9167 101.944 22.9167Z" fill="#191308"/>
<path d="M114.028 220C112.51 218.482 111.339 216.653 110.596 214.639C109.853 212.625 109.555 210.474 109.722 208.333H27.7778V168.194C37.6244 157.688 49.5675 149.366 62.834 143.767C76.1005 138.169 90.3949 135.419 104.792 135.694H109.792C109.473 133.366 109.696 130.996 110.442 128.767C111.189 126.539 112.44 124.513 114.097 122.847L114.931 122.083C111.667 122.083 107.986 121.667 104.792 121.667C87.85 121.264 71.0307 124.632 55.5498 131.526C40.069 138.419 26.3134 148.667 15.2778 161.528C14.3763 162.73 13.8889 164.192 13.8889 165.694V208.333C13.8889 212.017 15.3522 215.55 17.9569 218.154C20.5615 220.759 24.0942 222.222 27.7778 222.222H115.972L114.028 220Z" fill="#191308"/>
<path d="M186.597 113.125C186.941 113.054 187.295 113.054 187.639 113.125C187.294 113.062 186.942 113.062 186.597 113.125Z" fill="#191308"/>
<path d="M233.889 161.944L220 157.708C219.007 154.311 217.657 151.029 215.972 147.917L222.917 135C223.143 134.483 223.197 133.908 223.072 133.358C222.947 132.808 222.649 132.313 222.222 131.944L212.153 121.875C211.772 121.463 211.264 121.191 210.709 121.102C210.155 121.014 209.587 121.115 209.097 121.389L196.319 128.333C193.173 126.565 189.843 125.144 186.389 124.097L182.153 110.208C181.973 109.697 181.632 109.258 181.181 108.958C180.73 108.657 180.194 108.511 179.653 108.542H165.417C164.87 108.535 164.336 108.709 163.897 109.035C163.458 109.361 163.138 109.822 162.986 110.347L158.75 124.236C155.272 125.248 151.918 126.646 148.75 128.403L136.111 121.458C135.632 121.19 135.076 121.092 134.533 121.18C133.991 121.268 133.495 121.538 133.125 121.944L122.847 131.944C122.466 132.346 122.221 132.857 122.146 133.405C122.071 133.953 122.171 134.511 122.431 135L129.375 147.639C127.538 150.769 126.07 154.101 125 157.569L111.111 161.736C110.586 161.888 110.125 162.208 109.799 162.647C109.472 163.086 109.299 163.62 109.306 164.167V178.403C109.347 178.904 109.542 179.381 109.866 179.767C110.189 180.152 110.624 180.428 111.111 180.556L125 184.792C126.026 188.198 127.424 191.482 129.167 194.583L122.222 207.847C121.957 208.322 121.855 208.871 121.93 209.41C122.005 209.949 122.254 210.449 122.639 210.833L132.708 220.903C133.102 221.295 133.609 221.553 134.157 221.641C134.706 221.728 135.268 221.64 135.764 221.389L148.75 214.444C151.84 216.107 155.1 217.434 158.472 218.403L162.639 232.292C162.81 232.806 163.135 233.255 163.569 233.578C164.004 233.901 164.528 234.082 165.069 234.097H179.306C179.85 234.092 180.378 233.915 180.815 233.59C181.252 233.266 181.574 232.811 181.736 232.292L185.972 218.056C189.3 217.086 192.513 215.758 195.556 214.097L208.681 221.042C209.163 221.298 209.716 221.389 210.256 221.302C210.795 221.214 211.29 220.952 211.667 220.556L222.222 211.111C222.506 210.704 222.658 210.219 222.658 209.722C222.658 209.226 222.506 208.741 222.222 208.333L215.278 195.278C216.964 192.214 218.314 188.978 219.306 185.625L233.194 181.389C233.72 181.237 234.181 180.917 234.507 180.478C234.833 180.039 235.006 179.505 235 178.958V164.375C235.064 163.906 234.993 163.429 234.797 162.999C234.6 162.569 234.285 162.203 233.889 161.944ZM172.569 194.444C167.976 194.458 163.482 193.108 159.657 190.564C155.832 188.021 152.849 184.399 151.085 180.158C149.32 175.917 148.855 171.248 149.748 166.742C150.641 162.236 152.851 158.097 156.099 154.849C159.347 151.601 163.486 149.391 167.992 148.498C172.498 147.605 177.167 148.07 181.408 149.835C185.649 151.599 189.271 154.582 191.814 158.407C194.358 162.232 195.708 166.726 195.694 171.319C195.676 177.447 193.234 183.318 188.901 187.651C184.568 191.984 178.697 194.426 172.569 194.444Z" fill="#191308"/>
</g>
<defs>
<clipPath id="clip0_81_5">
<rect width="250" height="250" fill="white"/>
</clipPath>
</defs>
</svg>
