<svg width="140" height="140" viewBox="0 0 140 140" fill="none" xmlns="http://www.w3.org/2000/svg">
<path d="M117.027 109.069C123.31 101.509 127.68 92.5476 129.767 82.942C131.854 73.3365 131.597 63.3695 129.017 53.8843C126.438 44.3991 121.612 35.6747 114.947 28.4492C108.283 21.2237 99.9761 15.7095 90.7299 12.3733C81.4837 9.03705 71.57 7.97683 61.8273 9.28233C52.0847 10.5878 42.7998 14.2206 34.7581 19.8734C26.7164 25.5262 20.1545 33.0327 15.6275 41.7579C11.1004 50.4831 8.74141 60.1703 8.75002 70C8.75333 84.2896 13.7889 98.1215 22.9731 109.069L22.8856 109.143C23.1919 109.511 23.5419 109.826 23.8569 110.189C24.2506 110.639 24.675 111.064 25.0819 111.501C26.3069 112.831 27.5669 114.109 28.8881 115.307C29.2906 115.675 29.7063 116.016 30.1131 116.366C31.5131 117.574 32.9525 118.72 34.4444 119.787C34.6369 119.919 34.8119 120.089 35.0044 120.225V120.172C45.2511 127.383 57.4749 131.253 70.0044 131.253C82.5339 131.253 94.7577 127.383 105.004 120.172V120.225C105.197 120.089 105.368 119.919 105.564 119.787C107.052 118.716 108.496 117.574 109.896 116.366C110.303 116.016 110.718 115.671 111.121 115.307C112.442 114.104 113.702 112.831 114.927 111.501C115.334 111.064 115.754 110.639 116.152 110.189C116.463 109.826 116.817 109.511 117.123 109.139L117.027 109.069ZM70 35C73.8938 35 77.7002 36.1546 80.9378 38.3179C84.1754 40.4812 86.6988 43.556 88.1889 47.1534C89.679 50.7508 90.0689 54.7093 89.3092 58.5283C88.5496 62.3473 86.6745 65.8553 83.9212 68.6086C81.1678 71.362 77.6599 73.237 73.8409 73.9967C70.0219 74.7563 66.0634 74.3665 62.4659 72.8764C58.8685 71.3863 55.7938 68.8629 53.6305 65.6253C51.4672 62.3877 50.3125 58.5813 50.3125 54.6875C50.3125 49.466 52.3867 44.4584 56.0789 40.7663C59.771 37.0742 64.7786 35 70 35ZM35.0306 109.069C35.1065 103.324 37.441 97.8405 41.5291 93.8041C45.6171 89.7676 51.13 87.5029 56.875 87.5H83.125C88.87 87.5029 94.3829 89.7676 98.471 93.8041C102.559 97.8405 104.894 103.324 104.969 109.069C95.3743 117.715 82.9162 122.5 70 122.5C57.0839 122.5 44.6257 117.715 35.0306 109.069Z" fill="#191308"/>
</svg>
