<svg width="61" height="61" viewBox="0 0 61 61" fill="none" xmlns="http://www.w3.org/2000/svg">
<path d="M44.9474 55.2853H6.42105V16.0526H28.8947V9.63159H6.42105C2.88947 9.63159 0 12.5211 0 16.0526V54.579C0 58.1105 2.88947 61 6.42105 61H44.9474C48.4789 61 51.3684 58.1105 51.3684 54.579V32.1053H44.9474V55.2853Z" fill="black"/>
<path d="M51.3684 0H44.9473V9.63158H35.3157C35.3478 9.66368 35.3157 16.0526 35.3157 16.0526H44.9473V25.6521C44.9794 25.6842 51.3684 25.6521 51.3684 25.6521V16.0526H60.9999V9.63158H51.3684V0ZM12.842 22.4737H38.5263V28.8947H12.842V22.4737ZM12.842 32.1053V38.5263H38.5263V32.1053H28.8947H12.842ZM12.842 41.7368H38.5263V48.1579H12.842V41.7368Z" fill="black"/>
</svg>
