<svg width="250" height="250" viewBox="0 0 250 250" fill="none" xmlns="http://www.w3.org/2000/svg">
<path d="M156.25 85.9375V66.4062C156.25 61.2262 154.192 56.2584 150.529 52.5956C146.867 48.9328 141.899 46.875 136.719 46.875H42.9688C37.7887 46.875 32.8209 48.9328 29.1581 52.5956C25.4953 56.2584 23.4375 61.2262 23.4375 66.4062V183.594C23.4375 188.774 25.4953 193.742 29.1581 197.404C32.8209 201.067 37.7887 203.125 42.9688 203.125H136.719C141.899 203.125 146.867 201.067 150.529 197.404C154.192 193.742 156.25 188.774 156.25 183.594V164.062M187.5 85.9375L226.562 125M226.562 125L187.5 164.062M226.562 125H93.2617" stroke="#191308" stroke-width="15.625" stroke-linecap="round" stroke-linejoin="round"/>
</svg>
