<svg width="144" height="115" viewBox="0 0 144 115" fill="none" xmlns="http://www.w3.org/2000/svg">
<path d="M105.997 21.5625C91.125 21.5625 79.4925 30.8389 72 39.2168C64.5075 30.8389 52.875 21.5625 38.0025 21.5625C17.055 21.5625 0 37.6895 0 57.5C0 77.3105 17.055 93.4375 38.0025 93.4375C52.875 93.4375 64.5075 84.1611 72 75.7832C79.4925 84.1611 91.125 93.4375 105.997 93.4375C126.945 93.4375 144 77.3105 144 57.5C144 37.6895 126.945 21.5625 105.997 21.5625ZM38.0025 71.875C28.9575 71.875 21.6 65.4287 21.6 57.5C21.6 49.5713 28.9575 43.125 38.0025 43.125C46.5975 43.125 54.5175 51.2334 59.1525 57.5C54.5625 63.6992 46.575 71.875 38.0025 71.875ZM105.997 71.875C97.4025 71.875 89.4825 63.7666 84.8475 57.5C89.4375 51.3008 97.425 43.125 105.997 43.125C115.042 43.125 122.4 49.5713 122.4 57.5C122.4 65.4287 115.042 71.875 105.997 71.875Z" fill="#040723"/>
</svg>
