<svg width="274" height="274" viewBox="0 0 274 274" fill="none" xmlns="http://www.w3.org/2000/svg">
<path d="M239.75 214.062H34.25C31.9791 214.062 29.8012 213.16 28.1954 211.555C26.5896 209.949 25.6875 207.771 25.6875 205.5C25.6875 203.229 26.5896 201.051 28.1954 199.445C29.8012 197.84 31.9791 196.938 34.25 196.938H239.75C242.021 196.938 244.199 197.84 245.805 199.445C247.41 201.051 248.312 203.229 248.312 205.5C248.312 207.771 247.41 209.949 245.805 211.555C244.199 213.16 242.021 214.062 239.75 214.062ZM222.625 239.75H51.375C49.1041 239.75 46.9262 238.848 45.3204 237.242C43.7146 235.636 42.8125 233.458 42.8125 231.188C42.8125 228.917 43.7146 226.739 45.3204 225.133C46.9262 223.527 49.1041 222.625 51.375 222.625H222.625C224.896 222.625 227.074 223.527 228.68 225.133C230.285 226.739 231.188 228.917 231.188 231.188C231.188 233.458 230.285 235.636 228.68 237.242C227.074 238.848 224.896 239.75 222.625 239.75ZM17.125 145.562H8.5625V171.25C8.5625 175.792 10.3667 180.148 13.5783 183.359C16.7899 186.571 21.1457 188.375 25.6875 188.375H51.375V179.812C51.3651 170.732 47.7534 162.026 41.3325 155.605C34.9115 149.184 26.2056 145.572 17.125 145.562Z" fill="#233228"/>
<path d="M256.875 128.438H265.438V94.1875H256.875C243.254 94.1719 230.196 88.7542 220.565 79.1229C210.933 69.4916 205.516 56.4332 205.5 42.8125V34.25H68.5V42.8125C68.4844 56.4332 63.0667 69.4916 53.4354 79.1229C43.8041 88.7542 30.7457 94.1719 17.125 94.1875H8.5625V128.438H17.125C30.7457 128.453 43.8041 133.871 53.4354 143.502C63.0667 153.133 68.4844 166.192 68.5 179.812V188.375H205.5V179.812C205.516 166.192 210.933 153.133 220.565 143.502C230.196 133.871 243.254 128.453 256.875 128.438ZM137 162.688C126.839 162.688 116.906 159.674 108.458 154.029C100.009 148.384 93.4241 140.36 89.5357 130.973C85.6472 121.585 84.6298 111.256 86.6122 101.29C88.5945 91.324 93.4875 82.1698 100.672 74.9849C107.857 67.8 117.011 62.907 126.977 60.9247C136.943 58.9423 147.273 59.9597 156.66 63.8482C166.048 67.7366 174.072 74.3215 179.717 82.7701C185.362 91.2187 188.375 101.151 188.375 111.312C188.359 124.933 182.942 137.992 173.31 147.623C163.679 157.254 150.621 162.672 137 162.688Z" fill="#233228"/>
<path d="M137 145.562C155.916 145.562 171.25 130.228 171.25 111.312C171.25 92.3967 155.916 77.0625 137 77.0625C118.084 77.0625 102.75 92.3967 102.75 111.312C102.75 130.228 118.084 145.562 137 145.562Z" fill="#233228"/>
<path d="M222.625 179.812V188.375H248.312C252.854 188.375 257.21 186.571 260.422 183.359C263.633 180.148 265.438 175.792 265.438 171.25V145.562H256.875C247.794 145.572 239.089 149.184 232.668 155.605C226.247 162.026 222.635 170.732 222.625 179.812ZM256.875 77.0625H265.438V51.375C265.438 46.8332 263.633 42.4774 260.422 39.2658C257.21 36.0542 252.854 34.25 248.312 34.25H222.625V42.8125C222.635 51.8931 226.247 60.599 232.668 67.02C239.089 73.4409 247.794 77.0526 256.875 77.0625ZM51.375 42.8125V34.25H25.6875C21.1457 34.25 16.7899 36.0542 13.5783 39.2658C10.3667 42.4774 8.5625 46.8332 8.5625 51.375V77.0625H17.125C26.2056 77.0526 34.9115 73.4409 41.3325 67.02C47.7534 60.599 51.3651 51.8931 51.375 42.8125Z" fill="#233228"/>
</svg>
