<svg width="54" height="54" viewBox="0 0 54 54" fill="none" xmlns="http://www.w3.org/2000/svg">
<g clip-path="url(#clip0_45_190)">
<path d="M40.8826 6C42.8901 5.99989 44.8217 6.73851 46.2824 8.06472C47.743 9.39093 48.6221 11.2045 48.7399 13.1343L48.753 13.5789V38.8421H50.7206C52.418 38.8421 53.8163 40.0851 53.9842 41.6766L54 42V46.4211C54.0001 48.3542 53.2331 50.2143 51.8558 51.6209C50.4786 53.0274 48.5953 53.874 46.5913 53.9874L46.1295 54H19.8947C17.8872 54.0001 15.9555 53.2615 14.4949 51.9353C13.0343 50.6091 12.1551 48.7955 12.0374 46.8657L12.0243 46.4211V21.1579H7.43316C6.6213 21.1583 5.83817 20.8686 5.2353 20.345C4.63243 19.8214 4.25268 19.101 4.16955 18.3234L4.15381 18V13.5789C4.1537 11.6458 4.92072 9.78565 6.29794 8.37913C7.67516 6.97261 9.55846 6.12604 11.5625 6.01263L12.0243 6H40.8826ZM48.753 43.8947H25.1417V46.4211C25.1417 47.3053 24.9843 48.1566 24.6957 48.9474H46.1295C46.8253 48.9474 47.4926 48.6812 47.9846 48.2074C48.4766 47.7337 48.753 47.0911 48.753 46.4211V43.8947ZM30.3886 28.7368H25.1417C24.473 28.7376 23.8298 28.9841 23.3436 29.4261C22.8574 29.8682 22.5648 30.4723 22.5256 31.1151C22.4864 31.7579 22.7036 32.3909 23.1328 32.8846C23.5619 33.3784 24.1707 33.6957 24.8347 33.7718L25.1417 33.7895H30.3886C31.0573 33.7888 31.7005 33.5422 32.1867 33.1002C32.6729 32.6581 32.9655 32.054 33.0047 31.4112C33.0439 30.7684 32.8267 30.1355 32.3975 29.6417C31.9683 29.1479 31.3596 28.8306 30.6956 28.7545L30.3886 28.7368ZM35.6356 18.6316H25.1417C24.4459 18.6316 23.7786 18.8977 23.2866 19.3715C22.7946 19.8453 22.5182 20.4879 22.5182 21.1579C22.5182 21.8279 22.7946 22.4705 23.2866 22.9443C23.7786 23.418 24.4459 23.6842 25.1417 23.6842H35.6356C36.3314 23.6842 36.9987 23.418 37.4907 22.9443C37.9827 22.4705 38.2591 21.8279 38.2591 21.1579C38.2591 20.4879 37.9827 19.8453 37.4907 19.3715C36.9987 18.8977 36.3314 18.6316 35.6356 18.6316ZM12.0243 11.0526C11.3285 11.0526 10.6612 11.3188 10.1692 11.7926C9.67717 12.2663 9.40077 12.9089 9.40077 13.5789V16.1053H12.0243V11.0526Z" fill="#191308"/>
</g>
<defs>
<clipPath id="clip0_45_190">
<rect width="54" height="54" fill="white"/>
</clipPath>
</defs>
</svg>
