<svg width="133" height="371" viewBox="0 0 133 371" fill="none" xmlns="http://www.w3.org/2000/svg">
<path d="M41.7596 370.329C49.1243 370.531 56.4889 370.397 63.8536 370.263C84.4007 369.892 104.948 369.489 125.495 369.12C128.69 369.051 132.826 368.412 132.994 366.26C133.162 364.311 129.9 363.065 127.143 362.494C117.289 360.442 106.932 360.039 96.7087 359.736C81.6768 359.265 66.6112 358.862 51.5791 358.559C42.1967 358.359 32.5453 358.256 23.8018 360.442C19.0603 361.654 12.0655 366.665 19.6992 369.086C21.8177 369.757 26.0551 369.422 28.3418 369.623C32.8144 369.926 37.287 370.194 41.7596 370.329Z" fill="url(#paint0_linear_48_220)"/>
<path opacity="0.22" d="M41.7596 370.329C49.1243 370.531 56.4889 370.397 63.8536 370.263C84.4007 369.892 104.948 369.489 125.495 369.12C128.69 369.051 132.826 368.412 132.994 366.26C133.162 364.311 129.9 363.065 127.143 362.494C117.289 360.442 106.932 360.039 96.7087 359.736C81.6768 359.265 66.6112 358.862 51.5791 358.559C42.1967 358.359 32.5453 358.256 23.8018 360.442C19.0603 361.654 12.0655 366.665 19.6992 369.086C21.8177 369.757 26.0551 369.422 28.3418 369.623C32.8144 369.926 37.287 370.194 41.7596 370.329Z" fill="url(#paint1_linear_48_220)"/>
<path d="M28.9181 55.2337C27.0686 56.377 25.6225 57.9576 24.2775 59.5382C15.2986 70.2321 9.68262 82.641 4.73921 95.0163C2.08254 101.675 -0.439592 108.602 0.0648361 115.53C0.132093 116.303 0.232973 117.11 0.636517 117.783C1.00643 118.456 1.64537 118.96 2.2843 119.431C3.3268 120.204 4.4029 120.944 5.51266 121.583C6.35337 122.087 7.26135 122.558 8.30384 122.625C9.21182 122.659 10.1198 122.39 10.9605 121.986C14.357 120.372 16.4083 117.178 17.5517 114.016C18.6951 110.822 19.0986 107.526 20.3429 104.365C21.3853 101.708 22.966 99.2535 24.412 96.7313C26.4297 93.2003 28.212 89.6022 29.9607 85.9703C31.8775 82.0357 33.7944 78.1012 35.1731 74.0321C36.3837 70.5347 37.1909 66.9028 39.074 63.5736C40.0157 61.9258 41.1926 60.3789 41.7307 58.6302C43.8494 51.9381 33.2227 52.6107 28.9181 55.2337Z" fill="#4D4D4D"/>
<path d="M102.443 356.744C102.712 356.375 102.913 355.97 103.048 355.501C100.627 326.983 100.358 298.466 98.7771 269.95C97.331 243.752 100.358 217.018 100.089 190.653C101.03 181.506 99.5169 172.191 95.616 163.615C95.3806 163.077 95.1115 162.539 94.6408 162.136C93.1611 160.858 90.6052 161.53 88.6213 162.203C69.6546 168.66 47.258 167.146 29.9728 158.033C26.5428 162.337 25.5676 167.617 24.7268 172.695C23.3481 180.934 21.8683 189.173 21.4985 197.446V197.479C21.4311 199.262 21.364 201.045 21.4311 202.826C21.6666 213.149 24.0879 223.307 25.9711 233.462C27.2154 240.088 28.2915 246.78 28.3924 253.506C28.4933 259.02 27.5516 264.03 29.0313 269.41C32.6967 282.66 32.6967 297.121 34.2437 310.673C35.8915 325.168 37.5393 339.695 38.8845 354.222C38.9517 354.793 38.9854 355.367 39.0526 355.97C39.288 356.039 40.465 356.241 42.0456 356.51C41.8774 356.542 41.6756 356.542 41.5076 356.576C38.3465 358.662 34.8491 360.41 31.1835 361.722C30.1074 362.091 28.9976 362.462 28.2242 363.202C27.4507 363.942 27.1144 365.185 27.8544 365.993C28.4933 366.665 29.6365 366.765 30.6454 366.765C38.3465 366.833 46.0136 366.262 53.5801 365.051C54.0173 364.985 54.5219 364.882 54.8582 364.614C55.1271 364.379 55.2279 364.076 55.3288 363.739C56.1023 361.184 55.5979 358.359 53.9838 356.139C53.7819 356.139 53.5801 356.139 53.3784 356.105C53.4121 356.039 53.4456 355.97 53.4456 355.87C54.5219 327.656 55.5979 299.475 56.7077 271.261C57.1784 259.389 56.136 219.304 59.7679 208.006C61.2812 208.14 62.7607 208.24 64.2742 208.375C72.5131 245.703 82.2991 311.076 90.538 348.372C91.2778 351.667 92.1521 355.198 94.7752 357.316C94.7752 357.316 94.7752 357.316 94.8089 357.316C93.6319 357.519 92.455 357.719 91.2778 357.99C88.6885 360.107 85.7963 361.924 82.6689 363.37C81.7609 363.807 80.8194 364.21 80.1804 364.95C79.575 365.69 79.4407 366.833 80.1804 367.471C80.8194 368.045 81.8618 368.011 82.7361 367.942C89.5965 367.439 96.3895 366.328 103.014 364.648C103.418 364.547 103.821 364.445 104.09 364.142C104.292 363.908 104.359 363.605 104.427 363.336C104.797 361.016 104.057 358.593 102.443 356.744Z" fill="#4D4D4D"/>
<path d="M103.716 135.425C103.548 127.22 103.245 119.014 102.74 110.809C102.102 100.115 101.698 89.1187 99.7474 78.5255C98.5033 71.8671 95.9474 64.7717 89.7598 60.8371C88.2129 57.6423 85.9599 54.9519 82.5634 53.4387C81.5208 51.8917 79.5032 51.69 77.8888 52.43C76.611 51.7909 74.9295 51.69 73.5845 52.7661C72.5084 53.6067 71.5667 54.5148 70.6588 55.4565C66.556 55.0865 62.4198 54.3802 58.3506 55.0865C54.1807 55.7926 48.2957 54.7839 43.117 54.9519C42.4107 52.7661 39.3168 51.2528 37.3664 53.5395C35.9203 55.1874 34.6425 56.936 33.4318 58.6847C32.3558 59.9291 31.4477 61.3751 30.6744 63.023C25.731 71.4973 22.7717 80.8459 21.0902 90.4302C15.2388 111.683 14.8353 134.316 15.8105 156.41C15.8105 156.544 15.7769 156.712 15.8105 156.847L16.4831 174.939C16.6848 180.521 16.4831 186.272 17.7609 191.753C19.7114 200.093 25.5964 198.311 36.2566 199.051C38.3416 199.185 40.292 200.53 40.0231 199.185C40.8975 199.219 41.7718 199.252 42.6798 199.286C42.9824 199.286 43.3187 199.32 43.6214 199.32C43.7222 199.32 43.7896 199.32 43.8905 199.32C47.4887 199.421 51.1205 199.387 54.3826 199.32C54.7187 199.32 55.0215 199.32 55.3578 199.286C56.2657 200.632 58.2498 201.438 59.9648 200.967C60.9065 200.698 61.848 200.463 62.7897 200.228C63.1261 200.328 63.4958 200.396 63.8995 200.429C64.673 200.463 65.4463 200.497 66.2197 200.53C67.5313 201.338 69.2463 201.472 70.5243 200.53C76.9136 200.362 83.2023 199.387 89.289 197.672L94.4342 197.1C95.0059 197.033 95.5774 196.865 96.1157 196.596C97.9316 196.798 99.9829 195.957 100.521 193.973C105.599 174.535 106.036 154.93 103.716 135.425Z" fill="#333333"/>
<path d="M74.6601 17.9343C74.6601 9.08998 66.2192 1.92705 55.7608 1.92705C45.3358 1.92705 36.8613 9.08998 36.8613 17.9343C36.8613 19.414 37.1304 20.8262 37.5676 22.2051C37.5676 22.5414 37.6013 22.9112 37.6013 23.2812C37.5339 26.476 37.7022 29.6708 38.3748 32.8318C39.7198 38.9522 43.1837 44.6355 49.7413 48.1328C51.9271 49.2761 54.4493 50.1841 57.0723 50.1505C60.6032 50.1168 63.8316 48.4692 66.2529 46.4177C74.3238 39.6583 75.0299 29.5025 74.4583 19.8847C74.5927 19.2458 74.6601 18.6069 74.6601 17.9343Z" fill="#EDD5BE"/>
<path d="M79.3649 20.2529C79.1631 17.6635 78.7597 15.175 78.0871 12.6865V12.6528C77.6499 10.0971 77.2464 7.57493 76.8427 5.01916C76.7419 4.31296 76.3047 3.70766 75.5649 3.57316C72.7401 3.0351 69.9154 2.63147 67.0569 2.3288C65.1399 1.31995 62.7189 0.849235 60.5665 1.05101C59.0197 0.849235 57.4391 0.916423 56.1276 1.08457C55.3204 1.18545 54.4461 1.35361 53.6054 1.62264C52.1259 1.58901 50.6461 1.65633 49.2 1.79084C46.0389 -1.16848 38.7416 -0.327791 36.5557 3.33773C36.1185 4.07755 35.8831 4.78379 35.8159 5.45635C32.9575 6.16254 30.1327 7.91115 29.292 10.8369C28.8549 12.2829 29.0566 13.8971 29.9644 15.1077C30.469 15.8139 31.2088 16.1838 31.9823 16.5201C32.2849 16.89 32.6549 17.26 33.0246 17.5962C33.361 18.1679 33.8318 18.6387 34.5381 19.0422C34.807 19.2104 35.1096 19.244 35.3788 19.244C35.5805 19.3785 35.7822 19.4794 35.9505 19.5803C37.2283 20.3538 38.439 18.9078 38.1698 17.6971C38.3381 17.3608 38.3716 16.9573 38.3044 16.5538C38.8424 15.9148 39.347 15.1749 39.8514 14.6369C40.4566 14.3342 41.0283 14.0317 41.6672 13.7626C41.7346 13.729 41.8018 13.7289 41.8692 13.6953C41.97 13.6617 42.0372 13.628 42.1381 13.5944C43.0796 13.2581 43.9876 13.1909 44.862 13.3254C44.9629 13.3591 45.0302 13.3926 45.1311 13.3926C45.8372 13.5944 46.5435 13.7962 47.2833 13.9644C47.7204 14.1325 48.1913 14.3342 48.6285 14.536C49.0991 14.7378 49.57 14.6706 49.9735 14.4688C54.2108 15.1077 58.6497 15.1414 62.9541 14.906C64.9382 16.6547 68.503 16.2174 70.4534 14.536L70.4871 14.5025C70.5543 15.2423 70.386 16.0157 69.9488 16.7218C69.6799 17.159 69.7136 17.8989 70.0162 18.3024C70.8906 19.3785 71.294 20.5555 71.2269 21.9344C71.1932 23.0442 72.4038 23.5485 73.2782 23.3468C73.5473 23.2794 73.5136 24.2211 73.4127 25.1627C73.3119 24.9272 73.0427 24.7592 72.7064 24.86C70.756 25.4653 68.7719 26.0707 66.788 26.6087C66.586 25.9698 66.1825 25.4316 65.4428 25.129C64.3667 24.6918 62.9543 24.86 61.8445 24.86C59.5241 24.86 57.2037 24.8937 54.8833 24.86C54.5806 24.86 54.3789 25.0283 54.3117 25.23C53.9754 25.23 53.6391 25.23 53.3365 25.23C52.9665 25.23 52.6639 25.499 52.6639 25.8353C52.6639 26.6424 52.6639 27.4157 52.6974 28.2229C52.2602 28.1892 51.8567 28.1557 51.4533 28.1557C50.5452 28.122 49.6372 28.122 48.7294 28.122C48.6957 27.6848 48.662 27.2476 48.6285 26.8442C48.662 26.4742 48.6957 26.1379 48.6957 25.7679C48.6957 25.4316 48.393 25.1627 48.0231 25.1627H47.855C47.8213 25.1627 47.7876 25.129 47.7204 25.129C45.6355 25.0281 43.5505 24.8937 41.4655 24.7929C40.0194 24.7255 38.069 24.2546 36.724 24.7255C34.7398 25.3981 35.0425 27.7185 35.2779 29.6018C35.0761 30.4087 35.0425 31.2159 35.4796 31.6866C35.8159 32.0902 36.2868 32.1237 36.7575 32.1911C38.3044 32.46 40.1203 32.2248 41.6672 32.2248C43.1805 32.2248 46.5435 32.8972 47.8213 31.8211C48.3931 31.3168 48.6285 30.4087 48.6957 29.3998C48.7294 29.3998 48.7628 29.3998 48.7965 29.3998C48.8302 29.6018 48.9648 29.7698 49.2337 29.8035C50.4107 30.0052 51.6213 30.1061 52.7985 30.0389C53.0674 30.9805 53.74 31.7874 54.9841 32.1911C56.5984 32.7626 58.818 32.3255 60.533 32.3928C61.5082 32.4263 62.4497 32.4265 63.2569 32.0902C63.963 32.0229 64.6693 31.922 65.3419 31.7874C65.5099 31.7539 65.6445 31.6194 65.7454 31.4848C65.9471 31.4513 66.1489 31.3168 66.2162 31.115C66.5188 30.207 66.956 28.8618 66.956 27.6176C68.9736 27.0122 71.0251 26.4405 73.0764 25.8688C73.211 25.8353 73.3119 25.7679 73.379 25.667C73.2782 26.3059 73.1773 26.8777 73.1436 26.9787C72.7738 28.4583 72.1012 29.7026 71.294 30.9468C70.9577 31.4513 71.126 32.46 71.6304 32.83C72.0003 33.0989 72.3701 33.2672 72.7064 33.4352C72.2358 35.6885 71.0586 37.8406 69.848 39.8919C68.503 42.1787 65.1401 44.1965 63.0886 45.9789C61.0374 47.7947 58.2126 49.0728 55.3204 48.8708C54.9506 48.8373 54.5471 48.8036 54.2108 48.6354C53.5046 48.2993 53.2354 47.5256 53.0002 46.8195C52.7983 46.1132 52.563 45.3734 51.8567 44.97C51.1841 44.5665 49.9735 44.9363 50.0744 45.6426C50.1417 46.1132 50.6798 46.4495 50.6798 46.9204C50.6798 47.4584 49.94 47.761 49.3346 47.6265C48.7628 47.4921 48.3594 47.055 47.9559 46.6178C47.0478 45.6089 46.1398 44.6 45.2655 43.6248C44.8957 43.1876 44.4585 42.8513 43.8868 43.0867C44.6266 44.6674 46.1063 46.1806 47.1487 47.6265C48.0231 48.8036 48.9311 50.0143 50.2426 50.8213C51.823 51.763 53.7735 52.0319 55.6904 52.0656C58.0108 52.0993 60.4321 51.8302 62.2817 50.5858C63.6267 49.7115 66.8888 47.0886 67.7295 45.8106C70.5206 41.5398 72.303 38.6141 73.8162 33.8724C73.8162 33.8052 73.8499 33.7715 73.8499 33.7044C76.3047 33.7715 77.7508 30.7113 78.3897 28.122C78.8942 26.0033 79.1297 23.6831 78.6925 21.6318C79.1631 21.3964 79.4323 20.9255 79.3649 20.2529ZM46.8798 29.7698C46.8461 29.8707 46.7789 29.9716 46.7452 30.0724C44.7611 30.2742 42.7098 30.5433 40.7594 30.4424C39.7842 30.4087 39.0107 30.207 38.4727 29.7698V29.7361C38.4727 28.5929 38.5061 27.4159 38.5061 26.2724C39.8177 26.2724 41.0957 26.2724 42.4072 26.2724C43.9539 26.3061 45.4674 26.3733 47.0142 26.407C47.0815 26.9785 47.1487 27.6513 47.1487 28.2566C47.0478 28.7609 46.9807 29.2653 46.8798 29.7698ZM64.4002 28.5929C64.1312 29.7026 63.7949 30.4759 62.7523 30.9131C61.0037 31.1148 59.255 31.1485 57.5063 31.0139C56.0604 30.8796 55.5559 30.8796 55.4215 29.5344C55.3878 29.2992 55.3878 29.0635 55.3878 28.8281C55.455 28.66 55.455 28.4583 55.3878 28.29C55.3878 27.7185 55.4213 27.1131 55.455 26.5414C58.3134 26.5414 61.1719 26.5416 64.0304 26.575C64.2321 26.7096 64.3667 26.8777 64.4675 27.0796C64.4675 27.4831 64.4675 27.9203 64.4675 28.3237C64.4339 28.4246 64.4002 28.492 64.4002 28.5929Z" fill="#333333"/>
<path d="M35.9837 84.8539C34.1005 81.76 31.8809 78.9689 29.6614 76.1439C27.6772 73.6218 27.4755 70.1581 24.7516 68.1405C22.0951 66.1899 18.6312 66.1564 15.4702 66.459C14.8648 66.5262 14.3268 66.7281 13.8896 67.0307C13.5869 67.1653 13.3179 67.367 13.0825 67.6022C12.1073 67.8042 11.1657 68.1405 10.1568 68.5103C8.20638 69.2837 7.60106 71.2342 8.54266 73.05C12.8135 81.5583 17.2861 90.0663 24.1801 96.7921C25.0879 97.6999 26.2985 97.7336 27.3074 97.3299C27.8792 97.5317 28.5181 97.6662 29.1907 97.6662C30.9729 97.6662 32.8224 97.3299 34.5711 97.0273C36.3872 96.7247 38.0685 96.3884 39.0102 94.606C40.6915 91.5123 37.5641 87.4095 35.9837 84.8539Z" fill="#909294"/>
<path d="M40.9641 91.2743C35.4491 83.2706 30.0013 75.2335 24.4861 67.2298C23.7463 66.1537 22.5357 66.1872 21.7285 66.759C18.8365 66.6244 15.9781 66.5909 13.086 66.6918C11.5391 66.759 9.82407 66.6918 9.05062 68.2385C8.81521 68.7094 9.18512 69.1803 9.68953 69.1803C13.3214 69.214 16.9533 69.2811 20.5852 69.3148C20.7533 69.5837 21.0896 69.6511 21.3587 69.5166C26.8065 77.4528 32.2543 85.3893 37.6686 93.3593C39.081 95.5115 42.4102 93.3593 40.9641 91.2743Z" fill="#606060"/>
<path d="M71.0504 119.661C66.746 116.702 62.3406 113.944 57.8009 111.389C54.4715 107.757 50.5707 104.629 46.2661 102.107C44.8874 101.3 43.5759 101.569 42.7016 102.376C42.4998 102.41 42.2644 102.444 42.0625 102.545C41.3901 102.107 40.7175 101.737 40.0785 101.569C39.6414 101.771 39.2377 101.973 38.8342 102.242C38.767 102.275 38.4979 102.477 38.2962 102.612C38.0944 102.78 37.6907 103.083 37.6907 103.083C37.5227 103.251 37.3209 103.385 37.1527 103.553C37.0855 105.167 38.0607 107.421 39.0359 109.236L41.7264 114.113C41.8272 114.314 41.9281 114.55 42.0625 114.752C42.0961 114.819 42.1298 114.886 42.1635 114.92L46.4342 122.688C46.7033 122.789 47.0059 122.923 47.275 123.091C48.1829 124.47 49.1246 125.849 50.1335 127.194C51.6468 131.532 55.0096 135.097 59.2467 137.518C64.6945 140.612 74.6151 145.118 78.6169 137.754C82.5514 130.591 76.6664 123.495 71.0504 119.661Z" fill="#4D4D4D"/>
<path d="M88.9164 72.277C88.1093 70.73 86.1252 70.1248 84.5784 70.6629C83.3341 70.6292 81.9889 70.8646 80.543 71.5372C72.203 75.2363 70.2861 85.7621 68.5039 93.6647C65.9817 104.863 64.3339 116.398 66.1161 127.865C66.318 129.21 67.125 130.051 68.0667 130.455C67.9994 131.732 67.9659 133.01 67.9994 134.288C68.033 136.407 69.58 137.315 71.1604 137.281C71.7659 137.55 72.3376 137.685 72.8419 137.718C73.5145 138.256 74.3552 138.559 75.3304 138.458C85.688 137.214 84.9147 123.863 86.5623 116.23C87.6386 111.185 89.1519 106.343 91.0014 101.534C92.7164 97.0275 94.4988 92.4206 94.7677 87.5445C95.0368 82.6682 93.0527 75.4717 88.9164 72.277Z" fill="#4D4D4D"/>
<path d="M37.4606 104.428C37.7969 104.361 38.0995 104.26 38.4021 104.092C39.8145 103.352 40.3862 101.906 40.6551 100.393C41.0251 98.2406 40.7897 96.0212 40.6551 93.8354C39.7808 92.423 38.7384 91.1113 37.2923 90.2034C37.0234 90.5061 36.788 90.8424 36.5189 91.145L37.2923 93.1291C36.0817 91.7839 34.6358 90.6069 33.0889 89.6317C31.5756 88.6902 29.5241 87.9839 28.3808 89.06C27.2711 90.1026 27.9437 92.053 28.7506 93.5663C31.0039 97.568 34.0641 101.099 37.4606 104.428Z" fill="#EDD5BE"/>
<path d="M9.11802 90.9787C9.21891 90.0372 9.31978 89.0618 9.85785 88.322C10.4968 87.4476 11.6402 87.0105 12.3127 86.1698C13.1871 85.1274 13.2207 83.614 13.9269 82.4707C14.5658 81.3946 15.7092 80.6883 16.9535 80.5875C18.1977 80.4866 19.442 81.0246 20.2154 81.9662C21.5943 83.6477 21.3589 86.1361 20.7871 88.2211C20.0137 91.1468 18.8367 93.938 17.2561 96.5274C16.9535 97.0317 16.6172 97.5363 16.1464 97.8389C15.2048 98.4106 14.0278 98.108 12.9853 97.8052C11.5729 97.4017 9.35341 97.2672 8.78174 95.6867C8.31094 94.3415 9.11802 92.3574 9.11802 90.9787Z" fill="#EDD5BE"/>
<path d="M66.386 54.1432C59.055 53.4708 51.5894 54.0425 44.2248 53.3362C43.6868 53.269 42.9805 53.8069 42.9133 54.3451C42.6442 56.0938 42.6105 55.9592 42.8124 57.7079C42.8459 58.0777 43.0477 58.3805 43.2831 58.5823C43.4513 63.7946 44.0231 68.9735 44.8637 74.1187C45.6035 78.6248 46.0744 83.7365 48.3946 87.7382C48.7983 88.4445 49.7735 88.3774 50.2107 87.7382C54.2124 81.7861 58.3487 75.9009 62.6195 70.1168C64.6373 67.3929 66.7895 64.7364 68.7736 61.9788C69.648 60.7681 71.5647 58.9523 71.363 57.1699C70.9932 54.5805 68.5719 54.3451 66.386 54.1432Z" fill="#4D4D4D"/>
<defs>
<linearGradient id="paint0_linear_48_220" x1="16.4527" y1="362.815" x2="132.946" y2="367.644" gradientUnits="userSpaceOnUse">
<stop stop-color="white"/>
<stop offset="1"/>
</linearGradient>
<linearGradient id="paint1_linear_48_220" x1="16.4527" y1="362.815" x2="132.946" y2="367.644" gradientUnits="userSpaceOnUse">
<stop/>
<stop offset="1"/>
</linearGradient>
</defs>
</svg>
