<svg width="54" height="54" viewBox="0 0 54 54" fill="none" xmlns="http://www.w3.org/2000/svg">
<path d="M12.6 28.8H10.8V25.2H12.6C13.0774 25.2 13.5353 25.3896 13.8728 25.7272C14.2104 26.0647 14.4 26.5226 14.4 27C14.4 27.4773 14.2104 27.9352 13.8728 28.2727C13.5353 28.6103 13.0774 28.8 12.6 28.8ZM25.2 36V25.2H27C27.4774 25.2 27.9353 25.3896 28.2728 25.7272C28.6104 26.0647 28.8 26.5226 28.8 27V34.2C28.8 34.6773 28.6104 35.1352 28.2728 35.4727C27.9353 35.8103 27.4774 36 27 36H25.2Z" fill="#191308"/>
<path fill-rule="evenodd" clip-rule="evenodd" d="M3.6001 5.4C3.6001 3.96783 4.16902 2.59432 5.18172 1.58162C6.19442 0.568927 7.56793 0 9.0001 0L38.5453 0L50.4001 11.8548V48.6C50.4001 50.0322 49.8312 51.4057 48.8185 52.4184C47.8058 53.4311 46.4323 54 45.0001 54H9.0001C7.56793 54 6.19442 53.4311 5.18172 52.4184C4.16902 51.4057 3.6001 50.0322 3.6001 48.6V5.4ZM12.6001 21.6H7.2001V39.6H10.8001V32.4H12.6001C14.0323 32.4 15.4058 31.8311 16.4185 30.8184C17.4312 29.8057 18.0001 28.4322 18.0001 27C18.0001 25.5678 17.4312 24.1943 16.4185 23.1816C15.4058 22.1689 14.0323 21.6 12.6001 21.6ZM27.0001 21.6H21.6001V39.6H27.0001C28.4323 39.6 29.8058 39.0311 30.8185 38.0184C31.8312 37.0057 32.4001 35.6322 32.4001 34.2V27C32.4001 25.5678 31.8312 24.1943 30.8185 23.1816C29.8058 22.1689 28.4323 21.6 27.0001 21.6ZM36.0001 39.6V21.6H46.8001V25.2H39.6001V28.8H43.2001V32.4H39.6001V39.6H36.0001Z" fill="#191308"/>
</svg>
