<svg width="61" height="61" viewBox="0 0 61 61" fill="none" xmlns="http://www.w3.org/2000/svg">
<path d="M19.0625 13.9791C19.0625 10.9457 20.2675 8.03654 22.4125 5.89159C24.5574 3.74664 27.4666 2.54163 30.5 2.54163C33.5334 2.54163 36.4426 3.74664 38.5875 5.89159C40.7325 8.03654 41.9375 10.9457 41.9375 13.9791V17.7916H53.375V58.4583H7.625V17.7916H19.0625V13.9791ZM19.0625 22.875H12.7083V53.375H48.2917V22.875H41.9375V30.5H36.8542V22.875H24.1458V30.5H19.0625V22.875ZM36.8542 17.7916V13.9791C36.8542 12.2939 36.1847 10.6777 34.9931 9.48605C33.8014 8.29441 32.1852 7.62496 30.5 7.62496C28.8148 7.62496 27.1986 8.29441 26.0069 9.48605C24.8153 10.6777 24.1458 12.2939 24.1458 13.9791V17.7916H36.8542Z" fill="black"/>
</svg>
