<svg width="116" height="116" viewBox="0 0 116 116" fill="none" xmlns="http://www.w3.org/2000/svg">
<path d="M96.1834 61.19C95.4085 60.308 94.9812 59.1741 94.9812 58C94.9812 56.8259 95.4085 55.692 96.1834 54.81L102.37 47.85C103.052 47.0896 103.475 46.1327 103.579 45.1168C103.684 44.1008 103.463 43.078 102.95 42.195L93.2834 25.4717C92.7754 24.5897 92.002 23.8906 91.0734 23.474C90.1447 23.0574 89.1083 22.9446 88.1117 23.1517L79.0251 24.9883C77.8689 25.2272 76.6652 25.0347 75.6412 24.447C74.6172 23.8593 73.8437 22.9172 73.4667 21.7983L70.5184 12.9533C70.1942 11.9933 69.5764 11.1595 68.7524 10.5697C67.9285 9.97996 66.94 9.66405 65.9267 9.66667H46.5934C45.5394 9.61166 44.4964 9.90315 43.6236 10.4966C42.7509 11.0901 42.0964 11.9529 41.7601 12.9533L39.0534 21.7983C38.6764 22.9172 37.9029 23.8593 36.8789 24.447C35.855 25.0347 34.6513 25.2272 33.4951 24.9883L24.1667 23.1517C23.2221 23.0182 22.259 23.1672 21.3989 23.5801C20.5388 23.9929 19.8201 24.6511 19.3334 25.4717L9.66673 42.195C9.14068 43.0681 8.90414 44.0852 8.99095 45.1009C9.07776 46.1166 9.48347 47.0788 10.1501 47.85L16.2884 54.81C17.0633 55.692 17.4906 56.8259 17.4906 58C17.4906 59.1741 17.0633 60.308 16.2884 61.19L10.1501 68.15C9.48347 68.9212 9.07776 69.8834 8.99095 70.8991C8.90414 71.9147 9.14068 72.9319 9.66673 73.805L19.3334 90.5283C19.8414 91.4103 20.6148 92.1094 21.5435 92.526C22.4721 92.9426 23.5086 93.0554 24.5051 92.8483L33.5917 91.0117C34.748 90.7728 35.9516 90.9653 36.9756 91.553C37.9996 92.1407 38.7731 93.0828 39.1501 94.2017L42.0984 103.047C42.4347 104.047 43.0892 104.91 43.962 105.503C44.8347 106.097 45.8777 106.388 46.9317 106.333H66.2651C67.2783 106.336 68.2668 106.02 69.0908 105.43C69.9147 104.84 70.5325 104.007 70.8567 103.047L73.8051 94.2017C74.1821 93.0828 74.9555 92.1407 75.9795 91.553C77.0035 90.9653 78.2072 90.7728 79.3634 91.0117L88.4501 92.8483C89.4466 93.0554 90.483 92.9426 91.4117 92.526C92.3403 92.1094 93.1138 91.4103 93.6217 90.5283L103.288 73.805C103.802 72.922 104.022 71.8992 103.918 70.8832C103.813 69.8673 103.39 68.9104 102.708 68.15L96.1834 61.19ZM88.9817 67.6667L92.8484 72.0167L86.6617 82.7467L80.9584 81.5867C77.4773 80.8751 73.8562 81.4664 70.7823 83.2484C67.7084 85.0303 65.3958 87.8789 64.2834 91.2533L62.4467 96.6667H50.0734L48.3334 91.1567C47.221 87.7822 44.9084 84.9337 41.8345 83.1517C38.7606 81.3697 35.1395 80.7784 31.6584 81.49L25.9551 82.65L19.6717 71.9683L23.5384 67.6183C25.9162 64.9599 27.2307 61.5183 27.2307 57.9517C27.2307 54.385 25.9162 50.9434 23.5384 48.285L19.6717 43.935L25.8584 33.3017L31.5617 34.4617C35.0428 35.1732 38.664 34.5819 41.7379 32.8C44.8117 31.018 47.1244 28.1694 48.2367 24.795L50.0734 19.3333H62.4467L64.2834 24.8433C65.3958 28.2178 67.7084 31.0663 70.7823 32.8483C73.8562 34.6303 77.4773 35.2216 80.9584 34.51L86.6617 33.35L92.8484 44.08L88.9817 48.43C86.6306 51.0823 85.3324 54.504 85.3324 58.0483C85.3324 61.5927 86.6306 65.0143 88.9817 67.6667ZM56.2601 38.6667C52.4363 38.6667 48.6984 39.8005 45.519 41.9249C42.3397 44.0493 39.8617 47.0687 38.3984 50.6015C36.9351 54.1342 36.5522 58.0214 37.2982 61.7717C38.0442 65.522 39.8855 68.9669 42.5893 71.6707C45.2932 74.3745 48.738 76.2159 52.4883 76.9618C56.2386 77.7078 60.1259 77.325 63.6586 75.8617C67.1913 74.3984 70.2108 71.9204 72.3351 68.741C74.4595 65.5617 75.5934 61.8238 75.5934 58C75.5934 52.8725 73.5565 47.955 69.9308 44.3293C66.3051 40.7036 61.3876 38.6667 56.2601 38.6667ZM56.2601 67.6667C54.3482 67.6667 52.4792 67.0997 50.8896 66.0375C49.2999 64.9753 48.0609 63.4656 47.3292 61.6993C46.5976 59.9329 46.4062 57.9893 46.7791 56.1141C47.1521 54.239 48.0728 52.5165 49.4247 51.1646C50.7766 49.8127 52.499 48.8921 54.3742 48.5191C56.2493 48.1461 58.193 48.3375 59.9593 49.0692C61.7257 49.8008 63.2354 51.0398 64.2976 52.6295C65.3598 54.2192 65.9267 56.0881 65.9267 58C65.9267 60.5638 64.9083 63.0225 63.0954 64.8354C61.2826 66.6482 58.8238 67.6667 56.2601 67.6667Z" fill="#040723"/>
</svg>
