<svg width="61" height="61" viewBox="0 0 61 61" fill="none" xmlns="http://www.w3.org/2000/svg">
<path d="M48.2916 17.7917H45.7499V15.25C45.7499 13.2277 44.9466 11.2883 43.5166 9.85831C42.0866 8.42835 40.1472 7.625 38.1249 7.625H12.7083C10.686 7.625 8.74653 8.42835 7.31656 9.85831C5.8866 11.2883 5.08325 13.2277 5.08325 15.25V45.75C5.08325 47.7723 5.8866 49.7117 7.31656 51.1417C8.74653 52.5717 10.686 53.375 12.7083 53.375H48.2916C50.3139 53.375 52.2533 52.5717 53.6833 51.1417C55.1132 49.7117 55.9166 47.7723 55.9166 45.75V25.4167C55.9166 23.3944 55.1132 21.4549 53.6833 20.025C52.2533 18.595 50.3139 17.7917 48.2916 17.7917ZM12.7083 12.7083H38.1249C38.799 12.7083 39.4455 12.9761 39.9221 13.4528C40.3988 13.9294 40.6666 14.5759 40.6666 15.25V17.7917H12.7083C12.0342 17.7917 11.3877 17.5239 10.911 17.0472C10.4344 16.5706 10.1666 15.9241 10.1666 15.25C10.1666 14.5759 10.4344 13.9294 10.911 13.4528C11.3877 12.9761 12.0342 12.7083 12.7083 12.7083ZM50.8332 38.125H48.2916C47.6175 38.125 46.971 37.8572 46.4944 37.3806C46.0177 36.9039 45.7499 36.2574 45.7499 35.5833C45.7499 34.9092 46.0177 34.2628 46.4944 33.7861C46.971 33.3094 47.6175 33.0417 48.2916 33.0417H50.8332V38.125ZM50.8332 27.9583H48.2916C46.2693 27.9583 44.3299 28.7617 42.8999 30.1916C41.4699 31.6216 40.6666 33.5611 40.6666 35.5833C40.6666 37.6056 41.4699 39.5451 42.8999 40.975C44.3299 42.405 46.2693 43.2083 48.2916 43.2083H50.8332V45.75C50.8332 46.4241 50.5655 47.0706 50.0888 47.5472C49.6122 48.0239 48.9657 48.2917 48.2916 48.2917H12.7083C12.0342 48.2917 11.3877 48.0239 10.911 47.5472C10.4344 47.0706 10.1666 46.4241 10.1666 45.75V22.4429C10.9831 22.7302 11.8426 22.8763 12.7083 22.875H48.2916C48.9657 22.875 49.6122 23.1428 50.0888 23.6194C50.5655 24.0961 50.8332 24.7426 50.8332 25.4167V27.9583Z" fill="black"/>
</svg>
