<svg width="157" height="99" viewBox="0 0 157 99" fill="none" xmlns="http://www.w3.org/2000/svg">
<path d="M13.0833 60.9352C14.9005 60.9352 16.1725 60.2098 16.8993 58.759C17.6262 57.3081 17.6262 55.8573 16.8993 54.4064C16.1725 52.9556 14.9005 52.2302 13.0833 52.2302C11.2662 52.2302 9.99421 52.9556 9.26736 54.4064C8.54051 55.8573 8.54051 57.3081 9.26736 58.759C9.99421 60.2098 11.2662 60.9352 13.0833 60.9352ZM113.457 56.9907C113.003 56.4013 112.128 55.2679 110.834 53.5903C109.539 51.9128 108.596 50.6887 108.006 49.9179C107.415 49.1471 106.552 48.0364 105.416 46.5855C104.281 45.1347 103.315 43.9332 102.52 42.9811C101.725 42.029 100.805 40.9635 99.7604 39.7847C98.7156 38.6059 97.6934 37.4951 96.694 36.4523L88.1762 45.9734C84.4057 50.2353 79.6698 52.3209 73.9685 52.2302C68.2673 52.1395 63.5995 49.9179 59.9653 45.5654C57.3759 42.437 56.0925 38.8553 56.1152 34.8201C56.1379 30.785 57.4667 27.2259 60.1016 24.1429L72.1628 10.1332C71.1633 9.63447 70.0049 9.26043 68.6875 9.01107C67.3701 8.7617 66.2912 8.62569 65.4507 8.60302C64.6103 8.58035 63.327 8.59168 61.6007 8.63702C59.8744 8.68236 58.7614 8.70503 58.2617 8.70503C54.0823 8.70503 50.4935 10.2012 47.4952 13.1936L36.7287 23.9388H26.1667V60.9352C26.3938 60.9352 26.8708 60.9239 27.5977 60.9012C28.3245 60.8785 28.8242 60.8785 29.0968 60.9012C29.3694 60.9239 29.8123 60.9692 30.4256 61.0372C31.0388 61.1052 31.5045 61.2072 31.8225 61.3433C32.1405 61.4793 32.538 61.672 33.015 61.9213C33.492 62.1707 33.9122 62.4767 34.2756 62.8394L54.5139 82.6978C59.7381 87.7304 64.8942 90.2467 69.9822 90.2467C73.5256 90.2467 76.3649 89.1812 78.5 87.0503C81.0894 87.9571 83.6447 87.7757 86.166 86.5062C88.6873 85.2368 90.3341 83.3099 91.1063 80.7256C94.468 80.9976 97.3527 80.0001 99.7604 77.7332C100.669 76.9171 101.487 75.8856 102.214 74.6388C102.94 73.392 103.258 72.2472 103.168 71.2044C103.622 71.6578 104.599 71.8845 106.098 71.8845C108.051 71.8845 109.8 71.4084 111.345 70.4563C112.889 69.5042 114.014 68.3028 114.718 66.8519C115.422 65.4011 115.694 63.7802 115.535 61.9893C115.376 60.1985 114.684 58.5323 113.457 56.9907ZM124.292 60.9352H130.833V26.1151H124.496L113.798 13.8736C110.799 10.4279 106.961 8.70503 102.282 8.70503H90.9019C86.8588 8.70503 83.5425 10.2239 80.9531 13.2616L66.7114 29.7875C65.4394 31.2837 64.8034 32.9839 64.8034 34.8881C64.8034 36.7924 65.4167 38.4926 66.6432 39.9887C68.5966 42.301 71.0952 43.4798 74.1389 43.5252C77.1826 43.5705 79.7038 42.4597 81.7027 40.1928L94.8542 25.367C95.9899 24.3242 97.2051 23.8368 98.4998 23.9048C99.7945 23.9728 100.862 24.5849 101.702 25.741C102.543 26.8972 102.736 28.178 102.282 29.5835C103.009 30.4449 104.281 31.8731 106.098 33.868C107.915 35.8629 109.278 37.4044 110.186 38.4926C111.504 40.1248 113.378 42.5164 115.808 45.6674C118.238 48.8184 119.703 50.734 120.203 51.4141C122.565 54.4064 123.928 57.5801 124.292 60.9352ZM143.917 60.9352C145.734 60.9352 147.006 60.2098 147.733 58.759C148.459 57.3081 148.459 55.8573 147.733 54.4064C147.006 52.9556 145.734 52.2302 143.917 52.2302C142.1 52.2302 140.828 52.9556 140.101 54.4064C139.374 55.8573 139.374 57.3081 140.101 58.759C140.828 60.2098 142.1 60.9352 143.917 60.9352ZM157 21.7626V65.2877C157 66.4665 156.568 67.4867 155.705 68.3481C154.842 69.2095 153.82 69.6402 152.639 69.6402H123.065C121.839 72.5873 119.976 75.0015 117.477 76.8831C114.979 78.7647 112.14 79.9321 108.96 80.3855C107.461 82.5618 105.632 84.4093 103.474 85.9282C101.316 87.447 98.9881 88.4785 96.4896 89.0225C94.5816 91.4255 92.208 93.273 89.3687 94.5652C86.5294 95.8573 83.6107 96.4127 80.6124 96.2314C77.8867 97.7729 75.0247 98.6683 72.0265 98.9177C69.0282 99.1671 66.1322 98.8497 63.3383 97.9656C60.5445 97.0815 57.8869 95.8687 55.3657 94.3272C52.8444 92.7856 50.4935 90.9494 48.3129 88.8185L28.7561 69.6402H4.36111C3.17998 69.6402 2.15784 69.2095 1.2947 68.3481C0.431568 67.4867 0 66.4665 0 65.2877V19.5863C0 18.4075 0.431568 17.3874 1.2947 16.526C2.15784 15.6645 3.17998 15.2338 4.36111 15.2338H33.049C33.685 14.5991 34.7526 13.5109 36.2517 11.9694C37.7509 10.4279 38.8298 9.33977 39.4885 8.70503C40.1472 8.07029 41.1466 7.16351 42.4868 5.98471C43.8269 4.8059 44.974 3.9558 45.928 3.43441C46.8819 2.91301 48.0404 2.33494 49.4032 1.7002C50.7661 1.06546 52.1743 0.623407 53.628 0.374044C55.0817 0.124681 56.6263 0 58.2617 0H66.2344C70.7318 0 74.843 1.26948 78.5681 3.80845C82.2933 1.26948 86.4045 0 90.9019 0H102.282C103.872 0 105.394 0.136016 106.847 0.408048C108.301 0.680081 109.584 1.00879 110.697 1.39417C111.81 1.77954 112.98 2.38028 114.207 3.19638C115.433 4.01248 116.444 4.71522 117.239 5.30463C118.034 5.89403 119.011 6.78947 120.169 7.99095C121.327 9.19242 122.213 10.1445 122.827 10.8473C123.44 11.55 124.371 12.6382 125.62 14.1117C126.87 15.5852 127.812 16.6846 128.448 17.4101H152.639C153.82 17.4101 154.842 17.8408 155.705 18.7022C156.568 19.5636 157 20.5838 157 21.7626Z" fill="#040723"/>
</svg>
